<?xml version="1.0" encoding="UTF-8"?>
<svg id="Layer_2" data-name="Layer 2" xmlns="http://www.w3.org/2000/svg" viewBox="0 0 351.24 340.27">
  <defs>
    <style>
      .cls-1 {
        fill: #d6b329;
      }

      .cls-1, .cls-2, .cls-3, .cls-4, .cls-5 {
        stroke: #231f20;
        stroke-miterlimit: 10;
      }

      .cls-6 {
        fill: #47463f;
        stroke-width: 0px;
      }

      .cls-2, .cls-7 {
        fill: #fff;
      }

      .cls-3 {
        fill: #954b9d;
      }

      .cls-4 {
        fill: #52c2b9;
      }

      .cls-7 {
        font-family: InkFree, 'Ink Free';
        font-size: 99px;
      }

      .cls-5 {
        fill: #434337;
      }
    </style>
  </defs>
  <g id="Layer_1-2" data-name="Layer 1">
    <g>
      <g>
        <path class="cls-2" d="M.75,106.87l56.26,36.65s35.06-68.58,6.19-103.23C60.62,37.19.75,106.87.75,106.87Z"/>
        <path class="cls-2" d="M350.49,106.87l-56.26,36.65s-35.06-68.58-6.19-103.23c2.58-3.1,62.45,66.58,62.45,66.58Z"/>
        <path class="cls-2" d="M69.91,33.06S89.01,14.48,135.98.55c0,0,38.71,26.84,76.39,0,0,0,38.19,7.74,68.65,32.52,0,0-30.97,46.97,5.16,113.55v8.77c-24.22,4.41-54.43,12.77-86.45,29.16-78.09,39.96-118.91,103.04-136,133.94v-170.32c5.83-8.92,15.25-25.96,18.01-49.36,3.75-31.67-6.92-56.05-11.82-65.74Z"/>
        <path class="cls-4" d="M63.72,339.77h7.74s55.23-123.87,214.71-133.68v-40.77s-147.61,16.52-222.45,174.45Z"/>
        <path class="cls-3" d="M81.27,339.77h7.74c15.19-15.88,43.12-40.99,85.16-58.71,46.88-19.76,88.62-20.76,111.24-19.67-.09-15.21-.18-30.41-.28-45.62-22.51,1.13-66.81,6.37-113.81,33.81-51.39,30-78.6,70.55-90.06,90.19Z"/>
        <path class="cls-1" d="M102.03,339.77h7.74c14.67-8.22,33-16.69,54.85-23.1,49.59-14.54,93.03-11.33,119.74-6.97.26-12.13.52-24.26.77-36.39-21.69-1.21-59.89-.5-103.23,16.26-38.22,14.78-64.67,35.96-79.88,50.19Z"/>
        <path class="cls-5" d="M131.85,339.77h153.29v-15.35s-56.77-26.58-153.29,15.35Z"/>
      </g>
      <circle class="cls-6" cx="174.94" cy="109.52" r="50"/>
      <text class="cls-7" transform="translate(144.81 140.26)"><tspan x="0" y="0">S</tspan></text>
    </g>
  </g>
</svg>