<?xml version="1.0" encoding="UTF-8"?>
<svg id="Layer_2" data-name="Layer 2" xmlns="http://www.w3.org/2000/svg" viewBox="0 0 687.34 146.54">
  <defs>
    <style>
      .cls-1 {
        font-size: 63px;
      }

      .cls-1, .cls-2 {
        fill: #47463f;
      }

      .cls-1, .cls-3 {
        font-family: FranklinGothic-Medium, 'Franklin Gothic Medium';
        font-weight: 500;
      }

      .cls-4 {
        fill: #d6b329;
      }

      .cls-4, .cls-5, .cls-6, .cls-7, .cls-8 {
        stroke: #231f20;
        stroke-miterlimit: 10;
      }

      .cls-2 {
        stroke-width: 0px;
      }

      .cls-5, .cls-9 {
        fill: #fff;
      }

      .cls-10 {
        letter-spacing: -.05em;
      }

      .cls-10, .cls-11, .cls-12 {
        font-size: 25px;
      }

      .cls-6 {
        fill: #954b9d;
      }

      .cls-9 {
        font-family: InkFree, 'Ink Free';
        font-size: 42.46px;
      }

      .cls-12 {
        letter-spacing: 0em;
      }

      .cls-13 {
        font-size: 30px;
      }

      .cls-3, .cls-7 {
        fill: #52c2b9;
      }

      .cls-14 {
        letter-spacing: 0em;
      }

      .cls-8 {
        fill: #434337;
      }
    </style>
  </defs>
  <g id="Layer_1-2" data-name="Layer 1">
    <g>
      <g>
        <g>
          <path class="cls-5" d="M.75,46.15l24.13,15.72s15.04-29.42,2.66-44.27c-1.11-1.33-26.78,28.56-26.78,28.56Z"/>
          <path class="cls-5" d="M150.75,46.15l-24.13,15.72s-15.04-29.42-2.66-44.27c1.11-1.33,26.78,28.56,26.78,28.56Z"/>
          <path class="cls-5" d="M30.41,14.49S38.6,6.52,58.75.55c0,0,16.6,11.51,32.76,0,0,0,16.38,3.32,29.44,13.95,0,0-13.28,20.14,2.21,48.7v3.76c-10.39,1.89-23.34,5.48-37.08,12.51-33.49,17.14-51,44.19-58.33,57.44V63.86c2.5-3.82,6.54-11.13,7.73-21.17,1.61-13.58-2.97-24.04-5.07-28.19Z"/>
          <path class="cls-7" d="M27.76,146.04h3.32s23.69-53.13,92.09-57.33v-17.49s-63.31,7.08-95.41,74.82Z"/>
          <path class="cls-6" d="M35.28,146.04h3.32c6.51-6.81,18.49-17.58,36.52-25.18,20.11-8.47,38.01-8.9,47.71-8.44-.04-6.52-.08-13.04-.12-19.57-9.66.48-28.65,2.73-48.81,14.5-22.04,12.87-33.71,30.26-38.63,38.68Z"/>
          <path class="cls-4" d="M44.19,146.04h3.32c6.29-3.53,14.15-7.16,23.52-9.91,21.27-6.23,39.9-4.86,51.36-2.99.11-5.2.22-10.4.33-15.61-9.3-.52-25.69-.22-44.27,6.97-16.39,6.34-27.74,15.42-34.26,21.53Z"/>
          <path class="cls-8" d="M56.98,146.04h65.74v-6.59s-24.35-11.4-65.74,6.59Z"/>
        </g>
        <circle class="cls-2" cx="75.46" cy="47.28" r="21.44"/>
        <text class="cls-9" transform="translate(62.54 60.47)"><tspan x="0" y="0">S</tspan></text>
      </g>
      <g>
        <text class="cls-1" transform="translate(170.13 69.17)"><tspan x="0" y="0">SPINUP SOU</tspan><tspan class="cls-14" x="336.44" y="0">R</tspan><tspan x="376.49" y="0">CING</tspan></text>
        <text class="cls-3" transform="translate(293.92 101.32)"><tspan class="cls-13" x="0" y="0">F</tspan><tspan class="cls-11" x="15.23" y="0">ASHION MEE</tspan><tspan class="cls-12" x="152.72" y="0">T</tspan><tspan class="cls-11" x="165" y="0">S </tspan><tspan class="cls-10" x="185.53" y="0">F</tspan><tspan class="cls-11" x="197.06" y="0">ABRIC</tspan></text>
      </g>
    </g>
  </g>
</svg>