<?xml version="1.0" encoding="UTF-8"?>
<svg xmlns="http://www.w3.org/2000/svg" id="Layer_1" data-name="Layer 1" viewBox="0 0 500 118.26">
  <defs>
    <style>
      .cls-1 {
        fill: #17184a;
      }

      .cls-1, .cls-2, .cls-3, .cls-4, .cls-5 {
        stroke-width: 0px;
      }

      .cls-2 {
        fill: #d60084;
      }

      .cls-3 {
        fill: #a11db2;
      }

      .cls-4 {
        fill: #ff7f36;
      }

      .cls-5 {
        fill: #ffbe3b;
      }
    </style>
  </defs>
  <path class="cls-1" d="m147.16,36.9c2.61-4.72,6.24-8.4,10.91-11.04,4.66-2.64,9.95-3.95,15.86-3.95,7.24,0,13.44,1.91,18.6,5.74,5.16,3.82,8.6,9.04,10.34,15.65h-16.34c-1.22-2.55-2.94-4.49-5.17-5.82-2.23-1.33-4.77-2-7.6-2-4.58,0-8.29,1.59-11.13,4.78-2.84,3.19-4.26,7.45-4.26,12.78s1.42,9.59,4.26,12.78c2.84,3.19,6.55,4.78,11.13,4.78,2.84,0,5.37-.67,7.6-2,2.23-1.33,3.95-3.27,5.17-5.82h16.34c-1.74,6.61-5.19,11.81-10.34,15.6-5.16,3.8-11.36,5.69-18.6,5.69-5.91,0-11.2-1.32-15.86-3.95-4.67-2.64-8.3-6.3-10.91-11-2.61-4.69-3.91-10.05-3.91-16.08s1.3-11.4,3.91-16.12Zm61.87,9.26c1.88-3.77,4.45-6.66,7.69-8.69,3.24-2.03,6.87-3.04,10.87-3.04,3.42,0,6.42.7,9,2.09,2.58,1.39,4.56,3.22,5.95,5.48v-6.87h14.86v48.5h-14.86v-6.87c-1.45,2.26-3.46,4.08-6.04,5.48-2.58,1.39-5.58,2.09-9,2.09-3.94,0-7.53-1.03-10.78-3.09-3.25-2.06-5.81-4.98-7.69-8.78-1.88-3.79-2.82-8.18-2.82-13.17s.94-9.36,2.82-13.12Zm30.42,4.43c-2.06-2.14-4.56-3.22-7.52-3.22s-5.46,1.06-7.52,3.17c-2.06,2.12-3.09,5.03-3.09,8.74s1.03,6.65,3.09,8.82c2.06,2.17,4.56,3.26,7.52,3.26s5.46-1.07,7.52-3.22c2.06-2.14,3.09-5.07,3.09-8.78s-1.03-6.63-3.09-8.78Zm36.21,31.55c-3.3-1.45-5.91-3.43-7.82-5.95-1.91-2.52-2.98-5.35-3.22-8.47h14.69c.17,1.68.96,3.04,2.35,4.08,1.39,1.04,3.1,1.56,5.13,1.56,1.85,0,3.29-.36,4.3-1.09,1.01-.72,1.52-1.66,1.52-2.82,0-1.39-.73-2.42-2.17-3.09-1.45-.67-3.8-1.4-7.04-2.22-3.48-.81-6.37-1.66-8.69-2.56-2.32-.9-4.32-2.32-6-4.26-1.68-1.94-2.52-4.56-2.52-7.87,0-2.78.77-5.32,2.3-7.61,1.53-2.29,3.79-4.1,6.78-5.43,2.98-1.33,6.53-2,10.65-2,6.08,0,10.88,1.51,14.39,4.52,3.51,3.01,5.52,7.01,6.04,11.99h-13.73c-.23-1.68-.97-3.01-2.22-4-1.25-.98-2.88-1.48-4.91-1.48-1.74,0-3.07.33-4,1-.93.67-1.39,1.58-1.39,2.74,0,1.39.74,2.43,2.22,3.13,1.48.7,3.78,1.39,6.91,2.09,3.59.93,6.52,1.84,8.78,2.74,2.26.9,4.24,2.35,5.95,4.35,1.71,2,2.59,4.68,2.65,8.04,0,2.84-.8,5.38-2.39,7.61-1.59,2.23-3.88,3.98-6.87,5.26-2.98,1.27-6.45,1.91-10.39,1.91-4.23,0-8-.72-11.3-2.17Zm40.67-35.98c2.06-3.77,4.92-6.66,8.6-8.69,3.68-2.03,7.89-3.04,12.65-3.04,6.08,0,11.17,1.59,15.25,4.78,4.09,3.19,6.76,7.68,8.04,13.47h-15.82c-1.33-3.71-3.91-5.56-7.74-5.56-2.72,0-4.9,1.06-6.52,3.17-1.62,2.12-2.43,5.14-2.43,9.08s.81,6.97,2.43,9.08c1.62,2.12,3.79,3.17,6.52,3.17,3.82,0,6.4-1.85,7.74-5.56h15.82c-1.28,5.68-3.97,10.14-8.08,13.39-4.12,3.25-9.18,4.87-15.21,4.87-4.75,0-8.97-1.01-12.65-3.04-3.68-2.03-6.55-4.92-8.6-8.69-2.06-3.77-3.09-8.17-3.09-13.21s1.03-9.44,3.09-13.21Zm51.51,0c1.88-3.77,4.45-6.66,7.69-8.69,3.24-2.03,6.87-3.04,10.87-3.04,3.42,0,6.42.7,9,2.09,2.58,1.39,4.56,3.22,5.95,5.48v-6.87h14.86v48.5h-14.86v-6.87c-1.45,2.26-3.46,4.08-6.04,5.48-2.58,1.39-5.58,2.09-9,2.09-3.94,0-7.53-1.03-10.78-3.09-3.25-2.06-5.81-4.98-7.69-8.78-1.88-3.79-2.82-8.18-2.82-13.17s.94-9.36,2.82-13.12Zm30.42,4.43c-2.06-2.14-4.56-3.22-7.52-3.22s-5.46,1.06-7.52,3.17c-2.06,2.12-3.09,5.03-3.09,8.74s1.03,6.65,3.09,8.82c2.06,2.17,4.56,3.26,7.52,3.26s5.46-1.07,7.52-3.22c2.06-2.14,3.09-5.07,3.09-8.78s-1.03-6.63-3.09-8.78Zm42.74-31.29v64.32h-14.86V19.3h14.86Zm55.74,43.63h-33.64c.23,3.01,1.2,5.32,2.91,6.91,1.71,1.59,3.81,2.39,6.3,2.39,3.71,0,6.29-1.56,7.74-4.69h15.82c-.81,3.19-2.27,6.06-4.39,8.6-2.12,2.55-4.77,4.55-7.95,6-3.19,1.45-6.75,2.17-10.69,2.17-4.75,0-8.98-1.01-12.69-3.04-3.71-2.03-6.61-4.92-8.69-8.69-2.09-3.77-3.13-8.17-3.13-13.21s1.03-9.44,3.09-13.21c2.06-3.77,4.94-6.66,8.65-8.69,3.71-2.03,7.97-3.04,12.78-3.04s8.87.99,12.52,2.96c3.65,1.97,6.5,4.78,8.56,8.43,2.06,3.65,3.09,7.91,3.09,12.78,0,1.39-.09,2.84-.26,4.35Zm-14.95-8.26c0-2.55-.87-4.58-2.61-6.08-1.74-1.51-3.91-2.26-6.52-2.26s-4.59.72-6.3,2.17c-1.71,1.45-2.77,3.51-3.17,6.17h18.6Z"></path>
  <g>
    <path class="cls-3" d="m73.31,6.43l36.19,36.19c1.62,1.62,1.44,4.32-.4,5.69-11.61,8.66-28.11,7.72-38.65-2.82-10.54-10.54-11.48-27.05-2.82-38.65,1.37-1.84,4.07-2.02,5.69-.4Z"></path>
    <path class="cls-2" d="m40.3,6.43L4.11,42.62c-1.62,1.62-1.44,4.32.4,5.69,11.61,8.66,28.11,7.72,38.65-2.82,10.54-10.54,11.48-27.05,2.82-38.65-1.37-1.84-4.07-2.02-5.69-.4Z"></path>
    <path class="cls-5" d="m73.31,111.83l36.19-36.19c1.62-1.62,1.44-4.32-.4-5.69-11.61-8.66-28.11-7.72-38.65,2.82-10.54,10.54-11.48,27.05-2.82,38.65,1.37,1.84,4.07,2.02,5.69.4Z"></path>
    <path class="cls-4" d="m40.3,111.83L4.11,75.64c-1.62-1.62-1.44-4.32.4-5.69,11.61-8.66,28.11-7.72,38.65,2.82,10.54,10.54,11.48,27.05,2.82,38.65-1.37,1.84-4.07,2.02-5.69.4Z"></path>
  </g>
</svg>
