<?xml version="1.0" encoding="UTF-8"?>
<svg width="300" height="425" version="1.1" viewBox="0 0 300 425" xml:space="preserve" xmlns="http://www.w3.org/2000/svg" xmlns:cc="http://creativecommons.org/ns#" xmlns:dc="http://purl.org/dc/elements/1.1/" xmlns:rdf="http://www.w3.org/1999/02/22-rdf-syntax-ns#"><metadata><rdf:RDF><cc:Work rdf:about=""><dc:format>image/svg+xml</dc:format><dc:type rdf:resource="http://purl.org/dc/dcmitype/StillImage"/><dc:title/></cc:Work></rdf:RDF></metadata><g transform="matrix(0 -1.3333 -1.3333 0 910.11 545.43)" fill="#41485a"><path d="m336.53 570.1c0 22.439-18.256 40.693-40.695 40.693-22.435 0-40.692-18.254-40.692-40.693s18.256-40.693 40.692-40.693c22.438 0 40.695 18.254 40.695 40.693m-95.296 0c0 30.108 24.494 54.604 54.601 54.604s54.604-24.496 54.604-54.604-24.496-54.604-54.604-54.604-54.601 24.496-54.601 54.604m112.43-8.5642c0 36.932-30.048 66.979-66.98 66.979-36.933 0-66.98-30.048-66.98-66.979 0-36.933 30.048-66.978 66.98-66.978 36.933 0 66.98 30.045 66.98 66.978m-148.29 0c0 44.832 36.473 81.308 81.306 81.308 44.832 0 81.306-36.476 81.306-81.308 0-44.831-36.474-81.306-81.306-81.306-44.833 0-81.306 36.475-81.306 81.306m184.85 8.5502c0 51.835-42.173 94.008-94.008 94.008-51.838 0-94.01-42.173-94.01-94.008 0-51.836 42.172-94.009 94.01-94.009 51.835 0 94.008 42.173 94.008 94.009m-202.76 0c0 59.964 48.784 108.75 108.75 108.75s108.75-48.785 108.75-108.75c0-59.964-48.783-108.75-108.75-108.75s-108.75 48.786-108.75 108.75"/><path d="m172.48 670.2v-17.353h-5.0867v11.434h-3.2658v-10.356h-4.7172v10.356h-3.4216v-11.589h-5.0867v17.509z"/><path d="m172.48 649.86v-5.9794h-16.338v-10.45h-5.2404v16.429z"/><path d="m172.48 631.12v-5.9794h-16.338v-10.45h-5.2404v16.429z"/><path d="m172.48 612.38v-17.353h-5.0867v11.434h-3.2658v-10.356h-4.7172v10.356h-3.4216v-11.589h-5.0867v17.509z"/><path d="m172.48 592.07v-5.5787l-11.405-8.8779h11.405v-5.9171h-21.578v5.2404l11.839 9.2141h-11.839v5.9193z"/><path d="m116.44 670.18v-17.259h-5.2403v11.28h-3.6687v-10.202h-4.9621v10.202h-7.7069v5.9794z"/><path d="m105.58 634.52h0.0623c3.1122 0 5.8258 2.2506 5.8258 5.5497 0 3.2658-2.6513 5.4563-5.7635 5.4563h-0.0623c-3.1143 0-5.8258-2.2506-5.8258-5.5186 0-3.297 2.6492-5.4874 5.7635-5.4874m0 17.139h0.0623c6.1954 0 11.22-4.9933 11.22-11.652 0-6.6562-4.9621-11.589-11.157-11.589h-0.0623c-6.1954 0-11.222 4.9932-11.222 11.652 0 6.6584 4.9643 11.589 11.16 11.589"/><path d="m104.32 626.05h12.113v-6.0729h-11.99c-3.1122 0-4.5926-1.5717-4.5926-3.9759s1.418-3.9759 4.4389-3.9759h12.144v-6.0729h-11.959c-6.9656 0-10.018 3.9759-10.018 10.109 0 6.1374 3.1143 9.9887 9.8641 9.9887"/><path d="m116.44 602.63v-5.5787l-11.405-8.8779h11.405v-5.9182h-21.578v5.2414l11.839 9.2141h-11.839v5.9193z"/><path d="m100.16 570.02c0-3.5774 1.9724-5.9483 5.4563-5.9483h0.0623c3.4506 0 5.4541 2.3709 5.4541 5.9483v2.4354h-10.973zm16.275 8.4148v-8.3214c0-7.7069-4.4389-12.177-10.665-12.177h-0.0623c-6.2265 0-10.85 4.5302-10.85 12.299v8.1989z"/><path d="m103.37 544.19 6.1352 2.4042-6.1352 2.4354zm13.223 5.2382v-5.7635l-21.732-9.1851v6.4113l3.8534 1.5717v8.3235l-3.8534 1.5405v6.2888z"/><path d="m111.2 530.76v6.4715h5.2403v-18.925h-5.2403v6.4715h-16.338v5.9816z"/><path d="m116.44 510.33h-21.578v6.0128h21.578z"/><path d="m105.58 490.82h0.0623c3.1122 0 5.8258 2.2506 5.8258 5.5497 0 3.2658-2.6513 5.4563-5.7635 5.4563h-0.0623c-3.1143 0-5.8258-2.2506-5.8258-5.5164 0-3.2991 2.6492-5.4896 5.7635-5.4896m0 17.139h0.0623c6.1954 0 11.22-4.9932 11.22-11.65 0-6.6584-4.9621-11.591-11.157-11.591h-0.0623c-6.1954 0-11.222 4.9933-11.222 11.652 0 6.6584 4.9643 11.589 11.16 11.589"/><path d="m116.44 482.22v-5.5788l-11.405-8.8778h11.405v-5.9171h-21.578v5.2403l11.839 9.2141h-11.839v5.9193z"/><path d="m144.46 670.18v-6.3178l-8.3525-5.1469 8.3525-5.149v-6.3211h-21.578v5.9494h12.393l-8.446 5.5207v0.12246l8.3837 5.4874h-12.331v5.8548z"/><path d="m131.39 630.97 6.1352 2.4042-6.1352 2.4354zm13.223 5.2382v-5.7635l-21.732-9.1851v6.4113l3.8534 1.5717v8.3235l-3.8534 1.5405v6.2888z"/><path d="m133.61 622.07h0.0623c6.2888 0 11.22-4.8396 11.22-11.376 0-4.4078-1.8499-7.2417-4.4991-9.154l-3.4839 4.5012c1.5405 1.2333 2.5267 2.6513 2.5267 4.7172 0 3.0209-2.5579 5.1469-5.7012 5.1469h-0.0623c-3.2368 0-5.7657-2.126-5.7657-5.1469 0-2.2506 1.0485-3.5774 2.6223-4.8708l-3.2078-4.5012c-2.8028 2.0347-4.8708 4.7773-4.8708 9.5568 0 6.1642 4.7172 11.126 11.16 11.126"/><path d="m131.39 586.91 6.1352 2.4042-6.1352 2.4354zm13.223 5.2382v-5.7635l-21.732-9.1851v6.4113l3.8534 1.5717v8.3235l-3.8534 1.5405v6.2888z"/><path d="m134.11 565.64c0-2.0325 0.98619-3.2056 2.5579-3.2056h0.0623c1.6963 0 2.5579 1.2333 2.5579 3.2368v3.9136h-5.178zm10.356 9.9242v-10.202c0-3.2991-0.86157-5.5787-2.3419-7.0279-1.2333-1.2623-2.8984-1.9101-5.0244-1.9101h-0.0623c-3.297 0-5.4853 1.7564-6.6272 4.4389l-7.52-5.1469v6.9033l6.5338 4.3476v2.6181h-6.5338v5.9794z"/><path d="m139.22 548.6v6.4715h5.2403v-18.925h-5.2403v6.4715h-16.338v5.9816z"/><path d="m144.46 533.99v-5.9794h-8.0764v-7.6757h8.0764v-5.9794h-21.578v5.9794h8.2011v7.6757h-8.2011v5.9794z"/><path d="m132.35 510.88h12.113v-6.0729h-11.99c-3.1122 0-4.5926-1.5717-4.5926-3.9759s1.418-3.9759 4.4389-3.9759h12.144v-6.0729h-11.959c-6.9656 0-10.018 3.9759-10.018 10.109 0 6.1374 3.1143 9.9887 9.864 9.9887"/><path d="m134.11 477.63c0-2.0325 0.98619-3.2057 2.5579-3.2057h0.0623c1.6963 0 2.5579 1.2333 2.5579 3.2368v3.9136h-5.178zm10.356 9.9242v-10.202c0-3.2991-0.86157-5.5787-2.3419-7.028-1.2333-1.2623-2.8984-1.9101-5.0244-1.9101h-0.0623c-3.297 0-5.4853 1.7564-6.6272 4.4389l-7.52-5.1469v6.9033l6.5338 4.3476v2.618h-6.5338v5.9794z"/></g></svg>
