<?xml version="1.0" encoding="UTF-8"?> <svg xmlns="http://www.w3.org/2000/svg" width="180" height="52" viewBox="0 0 180 52" fill="none"><path d="M45.1799 17.37L45.0899 17.29L45.2199 16.83C45.7249 15.245 46.9549 9.82501 42.4149 6.53001L42.1799 6.36001L42.1249 6.32001L36.8249 2.41001C33.7499 0.115008 29.4849 0.0650084 25.1449 2.26501L25.0449 2.32501L24.6449 2.06001C23.2949 1.10501 18.5199 -1.74999 13.9799 1.55501L13.7549 1.72001L13.6899 1.76501L8.30988 5.58501C5.18488 7.80001 3.81488 11.845 4.55988 16.67C4.55988 16.705 4.55988 16.745 4.55988 16.78L4.20988 17.085C2.88488 18.09 -1.32012 21.73 0.424879 27.07L0.524879 27.365V27.41L2.52488 33.675C3.66488 37.335 7.08488 39.885 11.9049 40.67H12.0199L12.1849 41.115C12.7199 42.725 14.8949 47.815 20.5099 47.815H20.7899C20.8149 47.815 20.8449 47.815 20.8699 47.815L27.4499 47.865H27.5499C31.3449 47.865 34.7899 45.4 36.9999 41.1C37.0199 41.065 37.0349 41.03 37.0499 40.995H37.5549C39.2099 40.97 44.7499 40.49 46.4849 35.14L46.5799 34.85V34.8L48.6599 28.555C49.8749 24.91 48.6099 20.84 45.1749 17.37H45.1799ZM46.4749 27.805L45.8449 29.655C44.6849 27.72 43.1249 26.06 41.2649 24.79L26.6849 14.23L32.0499 10.35L41.2299 17.025C42.0499 17.615 42.8199 18.27 43.5349 18.985C46.3849 21.855 47.4249 24.99 46.4749 27.805ZM29.4299 30.055H20.0699L17.1799 21.155L24.7499 15.625L32.3199 21.155L29.4299 30.055ZM40.7249 8.16501L41.0349 8.38501C43.9499 10.5 43.5499 13.975 43.1399 15.615C42.9449 15.465 42.7649 15.31 42.5599 15.165L34.0999 9.00001C36.8299 7.45501 39.2799 7.12501 40.7199 8.16501H40.7249ZM35.4449 4.25001L37.0249 5.42501C34.8349 5.93001 32.7749 6.90501 30.9899 8.27501L16.4349 18.835L14.3849 12.56L23.5699 5.90001C24.3849 5.30501 25.2449 4.77501 26.1449 4.31501C29.7549 2.50501 33.0599 2.47001 35.4449 4.25001ZM22.8299 3.63001C22.6299 3.76501 22.4249 3.89001 22.2199 4.03501L13.7349 10.2C13.1099 7.12501 13.5749 4.69501 14.9949 3.62001L15.2999 3.40001C18.2149 1.28501 21.3899 2.74001 22.8249 3.63001H22.8299ZM9.63488 7.45501L11.2449 6.31501C11.0399 8.56001 11.3199 10.82 12.0699 12.945L17.6299 30.04H11.0649L7.54488 19.255C7.22988 18.295 6.98988 17.31 6.82988 16.315C6.20988 12.325 7.20988 9.17501 9.63488 7.45501ZM2.71988 26.7L2.60988 26.355C1.51488 22.925 3.86488 20.355 5.15488 19.265C5.21988 19.5 5.27488 19.735 5.34988 19.97L8.59488 29.945C5.46988 29.59 3.28988 28.415 2.72488 26.7H2.71988ZM4.72988 32.995L4.12488 31.115C6.19988 32 8.43988 32.425 10.6899 32.36H28.6599L26.6499 38.64H15.2899C14.2799 38.64 13.2699 38.565 12.2749 38.405C8.28988 37.755 5.60488 35.835 4.71988 32.995H4.73488H4.72988ZM20.8699 45.525H20.5099C16.9049 45.525 15.1949 42.48 14.5549 40.915H25.7699C24.4649 43.81 22.6749 45.52 20.8699 45.525ZM27.5549 45.575H25.5099C26.9899 43.875 28.0849 41.875 28.7249 39.715L34.2849 22.62L39.6249 26.46L36.1049 37.26C35.7949 38.225 35.4099 39.16 34.9499 40.06C33.1299 43.62 30.4999 45.575 27.5599 45.575H27.5549ZM38.0449 38.66C38.1249 38.43 38.2199 38.21 38.2949 37.97L41.5399 27.995C43.8599 30.12 44.9299 32.35 44.3849 34.07L44.2699 34.42C43.1549 37.85 39.7199 38.535 38.0449 38.66Z" fill="black"></path><path d="M77.7748 2.76501V5.98501H72.2998V21.665H68.6498V5.98501H63.1748V2.76501H77.7798H77.7748Z" fill="black"></path><path d="M90.15 15.865H80.3C80.54 17.635 81.855 18.87 83.815 18.87C85.455 18.87 86.42 17.85 86.82 16.935L90.095 17.635C89.425 19.7 87.435 21.875 83.815 21.875C79.44 21.875 76.915 18.79 76.915 15C76.915 11 79.575 8.125 83.76 8.125C86.93 8.125 90.205 10.085 90.23 14.81C90.23 15.185 90.205 15.455 90.15 15.855V15.865ZM86.74 13.5C86.605 12.21 85.665 10.925 83.84 10.925C81.745 10.925 80.805 12.08 80.43 13.5H86.74Z" fill="black"></path><path d="M100.645 21.665L97.5299 17.02L94.4149 21.665H90.4399L95.2699 14.685L90.8649 8.35001H94.8399L97.5249 12.325L100.21 8.35001H104.185L99.7799 14.685L104.61 21.665H100.635H100.645Z" fill="black"></path><path d="M105.05 8.98999C107.44 8.63999 108.055 7.13999 108.055 4.04999H111.06V8.34499H114.495V11.35H111.06V17.04C111.06 19.135 113.29 18.81 114.495 18.65V21.655C113.905 21.765 112.75 21.87 112.185 21.87C109.875 21.87 107.62 21.17 107.62 17.145V11.345H105.045V8.98499L105.05 8.98999Z" fill="black"></path><path d="M119.005 2.54999C120.295 2.54999 121.155 3.48999 121.155 4.69999C121.155 5.90999 120.295 6.84999 119.005 6.84999C117.715 6.84999 116.855 5.90999 116.855 4.69999C116.855 3.48999 117.74 2.54999 119.005 2.54999ZM117.285 8.34999C117.74 8.58999 118.385 8.75499 119.005 8.75499C119.625 8.75499 120.265 8.59499 120.725 8.34999V21.665H117.29V8.34499L117.285 8.34999Z" fill="black"></path><path d="M127.385 2.33499V21.665H123.95V2.33499H127.385Z" fill="black"></path><path d="M142.765 15.865H132.915C133.155 17.635 134.47 18.87 136.43 18.87C138.07 18.87 139.035 17.85 139.435 16.935L142.71 17.635C142.04 19.7 140.05 21.875 136.43 21.875C132.055 21.875 129.53 18.79 129.53 15C129.53 11 132.19 8.125 136.375 8.125C139.545 8.125 142.82 10.085 142.845 14.81C142.845 15.185 142.82 15.455 142.765 15.855V15.865ZM139.355 13.5C139.22 12.21 138.28 10.925 136.455 10.925C134.36 10.925 133.42 12.08 133.045 13.5H139.355Z" fill="black"></path><path d="M66.82 29.525V34.25H73.05V37.255H66.82V41.98H74.765V45.2H63.165V26.305H74.765V29.525H66.82Z" fill="black"></path><path d="M86.685 45.205L83.57 40.56L80.455 45.205H76.48L81.31 38.225L76.905 31.89H80.88L83.565 35.865L86.25 31.89H90.225L85.82 38.225L90.65 45.205H86.675H86.685Z" fill="black"></path><path d="M97.8251 31.675C101.745 31.675 103.945 34.575 104.185 37.045L100.91 37.69C100.75 36.535 99.7851 34.9 97.7951 34.9C95.5951 34.9 94.3051 36.565 94.3051 38.55C94.3051 40.535 95.5951 42.2 97.7951 42.2C99.7801 42.2 100.75 40.56 100.91 39.41L104.185 40.055C103.945 42.525 101.77 45.425 97.8251 45.425C93.4751 45.425 90.8701 42.34 90.8701 38.55C90.8701 34.76 93.3951 31.675 97.8251 31.675Z" fill="black"></path><path d="M118.795 37.475V45.205H115.36V37.69C115.36 35.54 114.1 34.9 112.62 34.9C111.275 34.9 109.775 36.03 109.775 38.12V45.205H106.34V25.875H109.775V33.985C110.39 32.775 111.975 31.675 113.855 31.675C116.78 31.675 118.795 33.445 118.795 37.475Z" fill="black"></path><path d="M129.96 37.095C129.96 35.51 129.26 34.49 127.33 34.49C125.665 34.49 124.86 35.405 124.54 36.395L121.37 35.67C121.96 33.55 124.11 31.67 127.545 31.67C130.525 31.67 133.4 32.85 133.4 37.79V41.385C133.4 42.675 134.26 42.89 134.69 42.73V45.09C134.1 45.33 133.645 45.41 133.08 45.41C131.575 45.41 130.61 44.415 130.37 42.835C129.54 44.205 128.06 45.41 125.725 45.41C122.665 45.41 120.945 43.585 120.945 41.195C120.945 37.65 124.705 36.765 129.965 37.09L129.96 37.095ZM126.605 42.625C128.135 42.545 129.69 41.015 129.96 39.295C127.3 39 124.375 39.375 124.375 41.04C124.375 42.14 125.18 42.705 126.605 42.625Z" fill="black"></path><path d="M149.29 37.475V45.205H145.855V37.69C145.855 35.54 144.595 34.9 143.115 34.9C141.775 34.9 140.27 36.03 140.27 38.12V45.205H136.835V31.89H140.27V33.985C140.885 32.775 142.47 31.675 144.35 31.675C147.275 31.675 149.29 33.445 149.29 37.475Z" fill="black"></path><path d="M166.04 46.225C166.04 49.5 162.79 51.435 158.575 51.435C153.045 51.435 151.435 48.885 151.435 46.79C151.435 45.26 152.375 44.185 153.26 43.49C151.89 42.47 151.57 40.19 153.125 38.98C152.59 38.255 152.295 37.395 152.295 36.43C152.295 33.825 154.495 31.68 158.31 31.68C159.52 31.68 160.54 31.87 161.395 32.245C162.415 31.035 164.295 30.23 165.61 30.18V32.785C164.59 32.785 163.84 32.975 163.165 33.455C163.945 34.285 164.32 35.305 164.32 36.435C164.32 39.095 162.01 41.025 158.305 41.025C157.15 41.025 156.13 40.835 155.27 40.515C155 41.345 155.35 42.26 158.465 42.205C162.84 42.15 166.035 42.66 166.035 46.23L166.04 46.225ZM162.605 46.495C162.605 45.34 161.05 45.26 159.355 45.205C157.475 45.125 156.27 44.91 155.435 44.615C155.005 44.99 154.655 45.635 154.655 46.335C154.655 47.545 155.755 48.645 158.6 48.645C161.205 48.645 162.6 47.41 162.6 46.495H162.605ZM155.73 36.295C155.73 37.315 156.695 38.175 158.305 38.175C159.915 38.175 160.88 37.315 160.88 36.295C160.88 35.33 159.885 34.47 158.305 34.47C156.725 34.47 155.73 35.33 155.73 36.295Z" fill="black"></path><path d="M179.92 39.405H170.07C170.31 41.175 171.625 42.41 173.585 42.41C175.225 42.41 176.19 41.39 176.59 40.475L179.865 41.175C179.195 43.24 177.205 45.415 173.585 45.415C169.21 45.415 166.685 42.33 166.685 38.54C166.685 34.54 169.345 31.665 173.53 31.665C176.7 31.665 179.975 33.625 180 38.35C180 38.725 179.975 38.995 179.92 39.395V39.405ZM176.51 37.04C176.375 35.75 175.435 34.465 173.61 34.465C171.515 34.465 170.575 35.62 170.2 37.04H176.51Z" fill="black"></path></svg> 